<?xml version="1.0" standalone="no"?><!DOCTYPE svg PUBLIC "-//W3C//DTD SVG 1.1//EN" "http://www.w3.org/Graphics/SVG/1.1/DTD/svg11.dtd"><svg class="icon" width="200px" height="200.00px" viewBox="0 0 1024 1024" version="1.1" xmlns="http://www.w3.org/2000/svg"><path d="M675.328 117.717333A425.429333 425.429333 0 0 0 512 85.333333C276.352 85.333333 85.333333 276.352 85.333333 512s191.018667 426.666667 426.666667 426.666667 426.666667-191.018667 426.666667-426.666667c0-56.746667-11.093333-112-32.384-163.328a21.333333 21.333333 0 0 0-39.402667 16.341333A382.762667 382.762667 0 0 1 896 512c0 212.074667-171.925333 384-384 384S128 724.074667 128 512 299.925333 128 512 128c51.114667 0 100.8 9.984 146.986667 29.12a21.333333 21.333333 0 0 0 16.341333-39.402667z m-213.333333 468.608l-105.664-105.642666a21.248 21.248 0 0 0-30.122667 0.042666c-8.32 8.32-8.213333 21.973333-0.064 30.101334l120.810667 120.832a21.248 21.248 0 0 0 30.122666-0.085334l211.157334-211.157333a21.290667 21.290667 0 0 0 0-30.186667 21.397333 21.397333 0 0 0-30.250667 0.106667l-196.010667 195.989333z"  /></svg>